<svg xmlns="http://www.w3.org/2000/svg" viewBox="0 0 400 200" width="200" height="100"><path d="M139.352 34.134l3.11 2.128c-1.145 5.295-2.715 9.47-4.707 12.527-1.993 3.057-4.913 5.472-8.76 7.245-3.85 1.774-8.284 2.66-13.306 2.66-2.676 0-5.924-.163-9.744-.49V140.9c8.266-2.504 14.846-5.73 19.74-9.674 4.896-3.945 9.436-9.618 13.625-17.02l3.153 1.516c-2.403 7.307-5.187 13.17-8.352 17.585-5.075 7.144-11.625 12.802-19.65 16.973-8.023 4.172-17.303 6.257-27.837 6.257-10.262 0-19.87-1.965-28.82-5.896-5.187-2.29-9.935-5.512-14.247-9.66-4.313-4.15-7.847-9.173-10.603-15.068-2.757-5.896-4.135-12.584-4.135-20.063 0-7.534 1.498-14.74 4.497-21.62 3-6.877 7.415-13.455 13.25-19.734 3.707-3.93 8.94-8.27 15.7-13.02l-10.274-.558c-3.805-.217-8.02.587-12.64 2.416-4.62 1.83-8.223 4.27-10.805 7.328-2.582 3.058-4.824 7.614-6.727 13.673l-3.152-1.842c1.855-7.742 4.255-13.767 7.2-18.074 3.927-5.725 9.108-10.155 15.546-13.29 6.437-3.135 13.773-4.704 22.01-4.704 5.727 0 15.844 1.2 30.354 3.603 14.51 2.4 24.49 3.602 29.946 3.602 3.653 0 6.45-.56 8.386-1.68 1.938-1.117 4.352-3.724 7.244-7.818zM71.478 52.31l-4.34-.41c-7.315 6.28-12.69 12.556-16.13 18.833-4.64 8.46-6.958 17.167-6.958 26.118 0 15.284 6.276 27.756 18.83 37.417 3.985-3.328 6.414-6.03 7.288-8.105.873-2.073 1.31-6.304 1.31-12.69v-61.16zm30.703 5.16c-5.186-.71-9.77-1.475-13.754-2.293v48.97c0 5.733-.232 9.378-.696 10.934-.463 1.557-1.54 3.317-3.23 5.282-3.056 3.385-9.165 8.736-18.327 16.05 4.583 2.233 8.292 3.73 11.13 4.493 4.91 1.308 9.63 1.96 14.158 1.96 2.4 0 5.976-.3 10.722-.9V57.468z"/><g><path d="M183.974 39.21l.82 1.965c-3.908 2.51-6.578 5.187-8.008 8.024-1.43 2.838-2.146 7.34-2.146 13.508V89.4l25.34-20.14c5.386 3.495 8.896 6.87 10.528 10.118 1.633 3.25 2.45 8.78 2.45 16.59v37.118c0 7.102-.738 12.29-2.212 15.568-2.348 5.354-6.687 10.38-13.018 15.076-8.297 6.227-18.86 11.607-31.686 16.14l-1.146-3.11c10.425-4.313 17.685-8.243 21.78-11.79 4.093-3.55 6.767-7.317 8.023-11.3.926-3.004 1.39-10.81 1.39-23.42V95.94c0-3.82-.38-6.47-1.146-7.943-1.148-2.02-3.252-4.013-6.312-5.978L174.64 93.35v45.582l5.813 5.854-14.37 11.75-14.614-11.75 6.467-6.428V63.92c0-6.764-.595-11.398-1.785-13.907-1.19-2.51-3.542-4.77-7.058-6.79l.9-2.048c2.884.82 5.197 1.733 6.94 2.743 1.74 1.01 4.026 2.77 6.856 5.28 3.336-3.164 6.536-5.485 9.598-6.958 3.065-1.474 6.593-2.483 10.586-3.03z" /><path d="M262.164 69.26l23.09 26.936-36.68 25.71v14.9l18.994 7.532 12.854-8.76 1.8 2.455-26.485 18.504c-5.41-2.893-9.867-4.966-13.365-6.223-3.498-1.255-8.473-2.564-14.923-3.93v-2.047c1.854-1.092 3.097-2.442 3.725-4.053.627-1.61.94-5.09.94-10.44v-46.83c5.13-1.855 9.39-3.547 12.773-5.076 2.457-1.147 8.216-4.04 17.276-8.68zm-12.444 9.414l-1.146.573v37.176l21.566-15.116-20.42-22.633zM332.087 43.14l-2.58 13.592-15.023-3.44v19.733h12.69v9.17h-12.69v54.938l9.252 6.96 6.386-5.16 1.884 2.294-19.036 15.31c-6.728-6.11-13.646-10.26-20.756-12.444l-.49-1.965c1.965-1.255 3.328-2.564 4.093-3.93 1.31-2.237 1.966-4.94 1.966-8.105V82.195h-7.696v-9.17h7.696V53.293c8.24-5.567 14.45-10.26 18.626-14.083l15.677 3.93zM337.817 78.192l22.844-28.174h2.375l-.818 22.598h16.457v9.17h-16.457v55.183l9.17 6.795 5.24-4.094 2.047 2.457-18.054 14.41c-6.133-6.276-13.078-10.534-20.838-12.772v-1.638c2.183-1.475 3.63-3.005 4.34-4.59.928-2.022 1.392-4.947 1.392-8.773V81.786h-7.696v-3.594z"/></g></svg>