<?xml version="1.0" encoding="utf-8"?>
<!-- Generator: Adobe Illustrator 17.0.0, SVG Export Plug-In . SVG Version: 6.00 Build 0)  -->
<!DOCTYPE svg PUBLIC "-//W3C//DTD SVG 1.1//EN" "http://www.w3.org/Graphics/SVG/1.1/DTD/svg11.dtd">
<svg version="1.1" id="Layer_1" xmlns="http://www.w3.org/2000/svg" xmlns:xlink="http://www.w3.org/1999/xlink" x="0px" y="0px"
	 width="24px" height="24px" viewBox="0 0 24 24" enable-background="new 0 0 24 24" xml:space="preserve">
<path d="M12,6c-1.657,0-3-1.343-3-3s1.343-3,3-3s3,1.343,3,3S13.657,6,12,6z M12,15c-1.657,0-3-1.343-3-3s1.343-3,3-3s3,1.343,3,3
	S13.657,15,12,15z M12,24c-1.657,0-3-1.343-3-3s1.343-3,3-3s3,1.343,3,3S13.657,24,12,24z"/>
</svg>
