<?xml version="1.0" standalone="no"?>
<!DOCTYPE svg PUBLIC "-//W3C//DTD SVG 20010904//EN"
 "http://www.w3.org/TR/2001/REC-SVG-20010904/DTD/svg10.dtd">
<svg version="1.0" xmlns="http://www.w3.org/2000/svg"
 width="700.000000pt" height="700.000000pt" viewBox="0 0 700.000000 700.000000"
 preserveAspectRatio="xMidYMid meet">
<metadata>
Created by potrace 1.11, written by Peter Selinger 2001-2013
</metadata>
<g transform="translate(0.000000,700.000000) scale(0.100000,-0.100000)"
fill="#000000" stroke="none">
<path d="M3308 6985 c-2 -1 -45 -6 -95 -9 -51 -4 -103 -9 -115 -11 -13 -2 -74
-11 -136 -20 -271 -38 -573 -126 -851 -247 -117 -51 -296 -142 -363 -184 -21
-13 -40 -24 -42 -24 -14 0 -366 -246 -386 -269 -3 -3 -30 -26 -60 -51 -176
-143 -393 -371 -547 -575 -356 -473 -576 -1002 -669 -1608 -22 -145 -29 -254
-29 -487 0 -216 6 -342 20 -445 14 -102 33 -214 50 -298 3 -16 21 -88 40 -160
184 -709 616 -1374 1190 -1832 28 -22 52 -42 55 -45 31 -33 240 -170 445 -292
240 -143 745 -326 1020 -371 17 -3 75 -12 130 -21 55 -8 116 -18 135 -22 54
-10 698 -14 765 -4 33 5 87 12 120 15 33 4 125 20 205 36 1124 222 2077 993
2528 2045 149 347 229 655 270 1039 16 150 8 681 -12 795 -3 14 -7 47 -11 74
-3 27 -8 52 -9 55 -2 3 -7 27 -10 53 -5 38 -47 227 -60 273 -1 6 -8 30 -15 55
-67 247 -197 552 -341 800 -45 79 -168 266 -204 312 -12 14 -32 41 -46 59
-313 417 -782 796 -1272 1028 -189 90 -476 196 -613 226 -11 3 -29 7 -40 9
-11 3 -51 12 -90 21 -38 10 -83 19 -100 21 -16 3 -52 9 -80 14 -82 16 -97 18
-180 25 -44 4 -91 9 -105 12 -27 5 -486 13 -492 8z m1729 -2254 l-2 -356 -520
-1 c-286 -1 -526 -2 -532 -3 -10 -1 -13 -292 -13 -1421 l0 -1420 -454 0 c-354
0 -455 3 -458 13 -2 6 -3 645 -3 1420 1 1266 0 1407 -14 1408 -9 1 -248 2
-531 3 l-515 1 -3 345 c-1 190 0 350 2 355 3 8 467 11 1525 11 l1521 0 -3
-355z"/>
</g>
</svg>
