<?xml version="1.0" standalone="no"?>
<!DOCTYPE svg PUBLIC "-//W3C//DTD SVG 20010904//EN"
 "http://www.w3.org/TR/2001/REC-SVG-20010904/DTD/svg10.dtd">
<svg version="1.0" xmlns="http://www.w3.org/2000/svg"
 width="700.000000pt" height="700.000000pt" viewBox="0 0 700.000000 700.000000"
 preserveAspectRatio="xMidYMid meet">
<metadata>
Created by potrace 1.11, written by Peter Selinger 2001-2013
</metadata>
<g transform="translate(0.000000,700.000000) scale(0.100000,-0.100000)"
fill="#000000" stroke="none">
<path d="M6384 6507 c-39 -59 -147 -189 -205 -244 -104 -100 -185 -140 -333
-163 -117 -18 -390 -11 -611 16 -16 2 -55 6 -85 9 -30 3 -68 8 -85 10 -16 2
-54 7 -84 10 -30 4 -62 8 -71 10 -9 2 -41 6 -71 10 -30 3 -83 11 -119 16 -36
6 -74 12 -85 14 -37 5 -180 27 -200 31 -10 2 -37 6 -60 9 -22 4 -83 13 -135
21 -52 9 -106 17 -120 19 -35 5 -360 55 -390 61 -14 2 -45 6 -70 9 -25 3 -74
10 -110 15 -36 5 -90 12 -120 16 -30 3 -63 8 -72 9 -9 2 -48 7 -85 10 -37 4
-79 8 -93 10 -33 5 -162 16 -230 20 -80 5 -379 5 -420 0 -19 -3 -60 -7 -90
-11 -104 -11 -125 -14 -225 -35 -641 -134 -1147 -513 -1399 -1049 -91 -193
-226 -620 -202 -639 20 -15 138 -82 141 -79 1 2 16 44 33 93 92 272 216 490
358 630 195 193 559 357 869 392 97 11 298 6 560 -12 22 -2 60 -3 84 -4 l45
-1 -45 -32 c-87 -63 -267 -198 -290 -217 -13 -11 -69 -57 -124 -103 -160 -133
-298 -270 -455 -454 -178 -207 -393 -556 -495 -804 -48 -117 -116 -320 -130
-387 -32 -162 -44 -225 -49 -258 -27 -195 -28 -526 -1 -713 2 -18 7 -52 10
-75 4 -23 13 -71 21 -107 9 -36 17 -72 19 -80 23 -107 91 -285 167 -434 209
-414 491 -721 887 -969 347 -216 857 -372 1351 -414 177 -15 646 -7 720 12 8
2 38 6 65 10 45 5 98 14 190 31 54 10 218 55 305 83 203 67 424 176 621 306
70 46 133 90 140 97 8 7 48 40 89 73 89 71 247 226 316 310 27 33 51 62 54 65
17 17 96 127 143 200 121 186 274 520 344 750 6 21 -138 95 -150 77 -4 -7 -40
-64 -80 -128 -67 -108 -201 -300 -229 -331 -7 -7 -35 -40 -63 -73 -216 -258
-506 -463 -868 -612 -113 -46 -332 -123 -352 -123 -7 0 -10 606 -10 1986 l0
1985 130 -7 c193 -12 488 -9 590 5 340 47 643 215 797 442 58 85 117 208 161
335 35 101 82 282 76 288 -13 11 -144 96 -148 96 -3 0 -15 -15 -27 -33z
m-3311 -832 c32 -3 62 -7 65 -9 9 -5 7 -3123 -2 -3236 -25 -328 -63 -398 -357
-667 l-46 -41 -44 34 c-142 112 -259 229 -421 423 -84 100 -228 351 -288 501
-47 116 -102 313 -120 430 -6 41 -14 86 -16 100 -22 128 -22 501 0 617 3 11 7
44 11 74 4 30 11 74 17 99 5 25 12 56 14 70 11 63 81 285 121 385 123 308 286
571 518 834 54 60 249 254 330 328 76 67 82 71 120 67 22 -2 66 -6 98 -9z
m1047 -175 c63 -11 126 -22 140 -25 13 -3 42 -7 65 -10 22 -3 67 -10 100 -15
33 -5 78 -12 100 -15 90 -13 95 -15 96 -43 3 -108 1 -4033 -2 -4037 -3 -2 -31
-7 -64 -10 -33 -3 -71 -8 -85 -10 -171 -29 -602 -26 -745 5 -22 5 -58 11 -80
15 -22 3 -69 13 -105 21 -36 9 -75 18 -87 20 -85 17 -523 191 -552 219 -7 8 3
17 224 196 461 373 709 622 779 780 56 129 56 120 56 1667 l1 1272 22 -5 c12
-2 74 -14 137 -25z"/>
</g>
</svg>
