<svg version="1.1" id="Layer_1" xmlns="http://www.w3.org/2000/svg" xmlns:xlink="http://www.w3.org/1999/xlink" x="0px" y="0px"
	 viewBox="-100 0 400 200" enable-background="new 0 0 400 200" xml:space="preserve">
<g class="logoMain"> 
<path d="M139.352,34.134l3.111,2.128c-1.146,5.295-2.716,9.471-4.708,12.527c-1.993,3.058-4.913,5.473-8.761,7.246
	c-3.848,1.774-8.283,2.661-13.305,2.661c-2.675,0-5.923-0.164-9.743-0.491v82.694c8.266-2.503,14.846-5.728,19.741-9.673
	c4.895-3.945,9.435-9.618,13.624-17.019l3.152,1.515c-2.403,7.307-5.187,13.169-8.352,17.585
	c-5.076,7.144-11.626,12.802-19.65,16.973c-8.024,4.172-17.304,6.257-27.838,6.257c-10.262,0-19.869-1.965-28.82-5.896
	c-5.187-2.292-9.935-5.513-14.247-9.662c-4.313-4.149-7.847-9.172-10.603-15.067c-2.757-5.896-4.135-12.584-4.135-20.063
	c0-7.533,1.498-14.74,4.497-21.618c2.999-6.878,7.415-13.456,13.249-19.735c3.708-3.93,8.941-8.271,15.701-13.021l-10.274-0.557
	c-3.806-0.217-8.02,0.587-12.641,2.416c-4.621,1.829-8.223,4.271-10.805,7.328c-2.582,3.058-4.824,7.614-6.727,13.673l-3.152-1.842
	c1.855-7.742,4.255-13.767,7.2-18.074c3.927-5.724,9.108-10.154,15.546-13.29c6.437-3.134,13.773-4.703,22.009-4.703
	c5.728,0,15.845,1.201,30.355,3.603c14.51,2.402,24.491,3.603,29.946,3.603c3.653,0,6.449-0.559,8.386-1.679
	C134.046,40.835,136.46,38.228,139.352,34.134z M71.478,52.311l-4.34-0.41c-7.315,6.278-12.69,12.555-16.129,18.832
	c-4.64,8.461-6.959,17.167-6.959,26.118c0,15.283,6.276,27.755,18.831,37.416c3.984-3.328,6.413-6.03,7.287-8.105
	c0.873-2.073,1.31-6.304,1.31-12.69V52.311z M102.181,57.469c-5.187-0.709-9.771-1.474-13.755-2.292v48.971
	c0,5.732-0.232,9.377-0.696,10.933c-0.463,1.556-1.54,3.316-3.231,5.281c-3.055,3.385-9.164,8.736-18.326,16.051
	c4.583,2.232,8.292,3.729,11.13,4.492c4.91,1.308,9.629,1.96,14.158,1.96c2.4,0,5.975-0.3,10.721-0.901V57.469z"/>
</g>
<g class="logoSecondary">
    <g class="logoLetters">
<path d="M183.974,39.21l0.819,1.965c-3.907,2.511-6.577,5.187-8.007,8.024c-1.43,2.839-2.146,7.342-2.146,13.509V89.4l25.34-20.141
	c5.386,3.496,8.896,6.87,10.528,10.119c1.633,3.25,2.449,8.781,2.449,16.591v37.117c0,7.102-0.737,12.291-2.211,15.568
	c-2.348,5.354-6.687,10.379-13.018,15.076c-8.297,6.227-18.859,11.607-31.686,16.141l-1.146-3.11
	c10.425-4.314,17.685-8.244,21.779-11.792c4.094-3.55,6.768-7.316,8.024-11.3c0.927-3.003,1.392-10.809,1.392-23.419V95.939
	c0-3.82-0.382-6.468-1.147-7.942c-1.148-2.02-3.252-4.013-6.312-5.978L174.64,93.352v45.582l5.813,5.854l-14.369,11.749
	l-14.615-11.749l6.468-6.428V63.919c0-6.763-0.595-11.397-1.785-13.906c-1.189-2.509-3.542-4.771-7.058-6.791l0.9-2.047
	c2.884,0.819,5.197,1.733,6.939,2.743c1.741,1.01,4.027,2.771,6.857,5.281c3.336-3.165,6.536-5.486,9.598-6.959
	C176.453,40.766,179.981,39.757,183.974,39.21z"/>
</g>
<g class="logoLetters">
<path class="logoLetters" d="M262.164,69.259l23.089,26.937l-36.68,25.709v14.901l18.995,7.532l12.854-8.761l1.801,2.456l-26.486,18.504
	c-5.411-2.893-9.867-4.966-13.365-6.223c-3.498-1.255-8.473-2.564-14.923-3.93v-2.047c1.855-1.092,3.098-2.442,3.726-4.053
	c0.627-1.609,0.941-5.089,0.941-10.439V83.014c5.13-1.855,9.388-3.547,12.772-5.076C247.345,76.791,253.104,73.898,262.164,69.259z
	 M249.72,78.674l-1.146,0.573v37.176l21.566-15.116L249.72,78.674z"/>
</g>
<g class="logoLetters">
<path class="logoLetters" d="M332.087,43.141l-2.579,13.591l-15.024-3.439v19.732h12.69v9.17h-12.69v54.938l9.252,6.959l6.386-5.158l1.884,2.293
	l-19.036,15.311c-6.728-6.112-13.646-10.262-20.756-12.445l-0.491-1.965c1.966-1.255,3.329-2.564,4.094-3.93
	c1.311-2.237,1.966-4.939,1.966-8.105V82.195h-7.696v-9.17h7.696V53.293c8.241-5.567,14.45-10.261,18.626-14.083L332.087,43.141z"/>
</g>
<g class="logoLetters">
<path class="logoLetters" d="M337.817,78.192l22.844-28.174h2.374l-0.818,22.598h16.457v9.17h-16.457v55.183l9.17,6.796l5.24-4.094l2.047,2.456
	l-18.054,14.41c-6.133-6.276-13.078-10.534-20.838-12.772v-1.638c2.183-1.475,3.63-3.005,4.34-4.591
	c0.928-2.021,1.392-4.946,1.392-8.772V81.786h-7.696V78.192z"/>
</g>
</g>
</svg>
