<svg xmlns="http://www.w3.org/2000/svg" viewBox="0 0 384.061 155.476"><path d="M128.748 0l3.32 2.27c-1.224 5.65-2.898 10.105-5.023 13.365-2.126 3.262-5.24 5.838-9.346 7.73-4.106 1.893-8.838 2.84-14.195 2.84-2.854 0-6.32-.176-10.394-.525v88.22c8.82-2.67 15.84-6.11 21.06-10.32s10.066-10.26 14.535-18.155l3.363 1.616c-2.563 7.797-5.533 14.05-8.91 18.762-5.415 7.62-12.402 13.657-20.962 18.106-8.56 4.45-18.46 6.675-29.698 6.675-10.948 0-21.196-2.097-30.746-6.29-5.533-2.446-10.6-5.88-15.198-10.31-4.6-4.425-8.372-9.783-11.312-16.073-2.94-6.29-4.41-13.424-4.41-21.402 0-8.037 1.597-15.725 4.796-23.063 3.2-7.337 7.91-14.355 14.134-21.053 3.955-4.192 9.54-8.823 16.75-13.89l-10.96-.595c-4.06-.232-8.556.626-13.485 2.577-4.93 1.952-8.773 4.557-11.527 7.817-2.754 3.263-5.146 8.125-7.176 14.588L0 40.92c1.98-8.26 4.54-14.686 7.68-19.28C11.87 15.532 17.4 10.806 24.266 7.46c6.866-3.344 14.693-5.017 23.48-5.017 6.11 0 16.904 1.28 32.383 3.843 15.48 2.563 26.127 3.843 31.947 3.843 3.898 0 6.88-.595 8.946-1.79 2.068-1.192 4.644-3.973 7.728-8.34zm-72.41 19.39l-4.63-.436c-7.803 6.697-13.538 13.394-17.206 20.09-4.95 9.026-7.424 18.313-7.424 27.862 0 16.305 6.696 29.61 20.09 39.917 4.25-3.552 6.84-6.434 7.773-8.647.932-2.212 1.398-6.726 1.398-13.54V19.392zm32.755 5.504c-5.533-.756-10.424-1.572-14.674-2.446v52.244c0 6.116-.25 10.004-.743 11.664-.494 1.66-1.643 3.537-3.447 5.634-3.26 3.61-9.776 9.32-19.55 17.123 4.888 2.382 8.846 3.98 11.873 4.792 5.238 1.395 10.273 2.09 15.104 2.09 2.56 0 6.374-.318 11.437-.96v-90.14zM176.352 5.416l.874 2.096c-4.168 2.68-7.017 5.533-8.542 8.56-1.526 3.028-2.29 7.832-2.29 14.412V58.96L193.43 37.47c5.745 3.73 9.49 7.33 11.23 10.795 1.742 3.468 2.613 9.368 2.613 17.7v39.598c0 7.576-.786 13.11-2.358 16.607-2.504 5.712-7.134 11.073-13.888 16.084-8.853 6.643-20.12 12.383-33.804 17.22l-1.223-3.32c11.122-4.602 18.867-8.794 23.234-12.58 4.367-3.786 7.22-7.804 8.56-12.054.99-3.203 1.486-11.53 1.486-24.984V65.935c0-4.075-.41-6.9-1.225-8.473-1.226-2.155-3.47-4.28-6.733-6.377l-14.927 12.09V111.8l6.202 6.245-15.33 12.534-15.59-12.533 6.9-6.856V31.776c0-7.214-.635-12.16-1.904-14.835-1.27-2.676-3.78-5.09-7.53-7.244l.96-2.184c3.077.874 5.545 1.85 7.403 2.926 1.858 1.078 4.296 2.956 7.315 5.634 3.56-3.376 6.974-5.853 10.24-7.425 3.268-1.572 7.032-2.65 11.292-3.23zM259.768 37.47L284.4 66.21l-39.132 27.427v15.896l20.265 8.037 13.713-9.346 1.922 2.62-28.256 19.74c-5.773-3.085-10.527-5.297-14.258-6.638-3.733-1.34-9.04-2.736-15.92-4.192v-2.184c1.978-1.164 3.304-2.605 3.974-4.323.67-1.717 1.005-5.43 1.005-11.137v-49.96c5.473-1.98 10.015-3.785 13.626-5.416 2.618-1.223 8.76-4.31 18.428-9.26zM246.49 47.517l-1.223.61V87.79l23.008-16.126-21.784-24.146zM334.36 9.608l-2.752 14.5-16.027-3.668v21.05h13.54v9.783h-13.54v58.61l9.87 7.424 6.814-5.503 2.01 2.445-20.31 16.333c-7.177-6.52-14.557-10.947-22.14-13.276l-.525-2.097c2.095-1.34 3.55-2.736 4.366-4.192 1.397-2.387 2.097-5.27 2.097-8.647V51.273h-8.21V41.49h8.21V20.44c8.792-5.94 15.416-10.948 19.87-15.024l16.727 4.192zM340.476 47l24.37-30.056h2.532l-.874 24.107h17.557v9.784h-17.556v58.87l9.783 7.25 5.59-4.366 2.184 2.62-19.26 15.373c-6.542-6.694-13.95-11.236-22.228-13.625v-1.747c2.328-1.573 3.872-3.206 4.63-4.898.99-2.156 1.484-5.275 1.484-9.357V50.835h-8.21V47z"/></svg>