<?xml version="1.0" encoding="UTF-8"?><!DOCTYPE svg PUBLIC "-//W3C//DTD SVG 1.1//EN" "http://www.w3.org/Graphics/SVG/1.1/DTD/svg11.dtd"><svg xmlns="http://www.w3.org/2000/svg"><symbol id="icon-allcheats-solid" viewBox="0 0 24 24"><path d="M6 2l1.171.203c-.355 2.245.791 2.519 2.699 2.874 1.468.273 3.13.622 3.13 3.284V9h-1.183v-.639c0-1.556-.48-1.809-2.164-2.122C7.07 5.759 5.557 4.848 6 2zm18 14c0 3.312-2.607 6-5.825 6a5.716 5.716 0 0 1-3.921-1.565c-1.311-1.229-3.278-1.132-4.55.038A5.71 5.71 0 0 1 5.825 22C2.608 22 0 19.312 0 16s2.608-6 5.825-6l12.563.007C21.506 10.123 24 12.762 24 16zM9 15H7v-2H5v2H3v2h2v2h2v-2h2v-2zm4 1h-2v1h2v-1zm4-2a1 1 0 1 0 2 0 1 1 0 0 0-2 0zm0 2a1 1 0 1 0-2 0 1 1 0 0 0 2 0zm2 2a1 1 0 1 0-2 0 1 1 0 0 0 2 0zm2-2a1 1 0 1 0-2 0 1 1 0 0 0 2 0z"/></symbol><symbol id="icon-arrow-back-condensed" viewBox="0 0 24 24"><path d="M0 12l11 8v-6h13v-4H11V4L0 12z"/></symbol><symbol id="icon-arrow-back" viewBox="0 0 24 24"><path d="M10.975 23l2.847-2.828-6.176-6.176H24v-3.992H7.646l6.176-6.176L10.975 1 0 12l10.975 11z"/></symbol><symbol id="icon-essentials-solid" viewBox="0 0 24 24"><path d="M12 .587l3.668 7.568L24 9.306l-6.064 5.828 1.48 8.279L12 19.446l-7.417 3.967 1.481-8.279L0 9.306l8.332-1.151z"/></symbol><symbol id="icon-essentials" viewBox="0 0 24 24"><path d="M12 5.173l2.335 4.817 5.305.732-3.861 3.71.942 5.27L12 17.178l-4.721 2.525.942-5.27-3.861-3.71 5.305-.733L12 5.173zm0-4.586L8.332 8.155 0 9.306l6.064 5.828-1.48 8.279L12 19.446l7.416 3.966-1.48-8.279L24 9.306l-8.332-1.15L12 .587z"/></symbol><symbol id="icon-essentials2-solid" viewBox="0 0 24 24"><path d="M12 .288l2.833 8.718H24l-7.417 5.389 2.833 8.718L12 17.725l-7.417 5.388 2.833-8.718L0 9.006h9.167z"/></symbol><symbol id="icon-gameplay-solid" viewBox="0 0 24 24"><path d="M18 1l-6 4-6-4-6 5v7l12 10 12-10V6z"/></symbol><symbol id="icon-health-solid" viewBox="0 0 24 24"><path d="M24 9h-9V0H9v9H0v6h9v9h6v-9h9z"/></symbol><symbol id="icon-misccheats-solid" viewBox="0 0 24 24"><path d="M2.479 18c.978 0 1.309-.524 1.708-.922C5 16.262 6 16.609 6 17.925V24h6.075c1.315 0 1.663-1 .847-1.813-.398-.399-.922-.73-.922-1.708C12 19.392 13.108 18 15 18s3 1.392 3 2.479c0 .978-.524 1.309-.922 1.708-.816.813-.469 1.813.847 1.813H24v-6.075c0-1.315-1-1.663-1.813-.847-.399.398-.73.922-1.708.922C19.392 18 18 16.892 18 15s1.392-3 2.479-3c.978 0 1.309.524 1.708.922.813.816 1.813.469 1.813-.847V6h-6.075c-1.315 0-1.663-1-.847-1.813.398-.399.922-.73.922-1.708C18 1.392 16.892 0 15 0s-3 1.392-3 2.479c0 .978.524 1.309.922 1.708C13.738 5 13.391 6 12.075 6H6v6.075c0 1.315-1 1.663-1.813.847-.399-.398-.73-.922-1.708-.922C1.392 12 0 13.108 0 15s1.392 3 2.479 3z"/></symbol><symbol id="icon-toggle" viewBox="0 0 24 24"><path d="M12 6a3 3 0 1 1 0-6 3 3 0 0 1 0 6zm0 9a3 3 0 1 1 0-6 3 3 0 0 1 0 6zm0 9a3 3 0 1 1 0-6 3 3 0 0 1 0 6z"/></symbol><symbol id="icon-vehicles-solid" viewBox="0 0 24 24"><path d="M24 0l-6 22-8.129-7.239 7.802-8.234-10.458 7.227L0 12 24 0zM9 16.668V24l3.258-4.431L9 16.668z"/></symbol><symbol id="icon-wanted-solid" viewBox="0 0 24 24"><path d="M12 24c-1.329-1.087-1.722-1.372-4.318-2.038C4.071 21.035 2 18.63 2 15.365c0-1.826.727-3.507 1.57-5.817.949-2.602.41-3.427-.589-4.478l-.85-.893L7.002.017c.482.498 1.161 1.411 2.402 1.411 1.223 0 2.051-.888 2.608-1.38.503.458 1.325 1.38 2.584 1.38 1.226 0 1.88-.872 2.42-1.428 1.067.955.094.112 4.853 4.177l-.85.893c-.999 1.05-1.538 1.875-.588 4.478.842 2.31 1.569 3.991 1.569 5.817 0 3.266-2.071 5.67-5.682 6.597-2.596.666-2.989.951-4.318 2.038z"/></symbol><symbol id="icon-wanted2-solid" viewBox="0 0 24 24"><path d="M20.431 9.548c-.95-2.602-.411-3.427.589-4.478l.85-.893C17.109.112 18.084.955 17.016 0c-.539.557-1.193 1.428-2.42 1.428-1.26 0-2.08-.921-2.584-1.38-.557.492-1.385 1.38-2.608 1.38-1.242 0-1.92-.913-2.402-1.411l-4.871 4.16.85.893c.999 1.051 1.538 1.876.589 4.478C2.727 11.857 2 13.539 2 15.365c0 3.266 2.071 5.67 5.682 6.597 2.596.666 2.989.951 4.318 2.038 1.329-1.087 1.722-1.372 4.318-2.038C19.93 21.035 22 18.63 22 15.365c0-1.826-.727-3.507-1.569-5.817zM14.599 16L12 14.633 9.401 16l.494-2.895-2.102-2.049 2.906-.422L12 8l1.3 2.634 2.906.422-2.104 2.049.497 2.895z"/></symbol><symbol id="icon-weapons-solid" viewBox="0 0 24 24"><path d="M19.431 8.657c-1.391-.155-2.937-1.369-3.532-2.653H8v5.113c2.798 0 1.686 3.634 4.996 4.146 1.988.307 3.258-.694 3.381-1.93.198-1.974 1.331-3.725 3.054-4.676zm-9.122-1.699h3.561a.343.343 0 1 1 0 .685h-3.561v-.685zm0 1.287h3.561a.343.343 0 1 1 0 .684h-3.561v-.684zm0 1.971v-.685h3.561a.343.343 0 1 1 0 .685h-3.561zm3.125 4.257c-2.814-.28-2.644-3.545.518-3.057 2.192.34 2.045 3.312-.518 3.057zM7 6.004V9H.986C.926 8.509.636 7.994 0 7.843V6.004h7zM3 5.27H.703V4.239c0-.188.188-.3.366-.204L3 5.27zm14.81 2.07a4.858 4.858 0 0 1-.702-.618c.529-.297 1.027-.494 1.681-.542.241-.018.349.273.107.376-.486.208-.818.413-1.086.784zm-3.033 5.293c-.326.57-.875 1.146-1.341 1.184-.145.012-.244-.123-.188-.253.107-.247.778-.745.622-1.552.492.08.783.331.907.621zm5.29-3.16a5.082 5.082 0 0 0-2.738 4.11c.777.323 1.671.917 1.671 2.938v2.465c0 .847.34 1.014 1.216 1.014h2.493c.99 0 1.291-.309 1.291-.999 0-1.527-.396-3.828-1.997-6.079-.782-1.101-1.803-1.85-1.936-3.449zm-.63 3.973c-.391 0-.707-.316-.707-.708a.707.707 0 1 1 1.415 0 .708.708 0 0 1-.708.708z"/></symbol><symbol id="icon-weather-solid" viewBox="0 0 24 24"><path d="M4.069 13H0v-2h4.069c-.041.328-.069.661-.069 1s.028.672.069 1zm3.034-7.312L4.222 2.807 2.808 4.221l2.881 2.881a8.019 8.019 0 0 1 1.414-1.414zm11.209 1.414l2.881-2.881-1.414-1.414-2.881 2.881a8.121 8.121 0 0 1 1.414 1.414zM12 4c.339 0 .672.028 1 .069V0h-2v4.069A8.047 8.047 0 0 1 12 4zm0 16c-.339 0-.672-.028-1-.069V24h2v-4.069A8.047 8.047 0 0 1 12 20zm7.931-9c.041.328.069.661.069 1s-.028.672-.069 1H24v-2h-4.069zm-3.033 7.312l2.88 2.88 1.415-1.414-2.88-2.88a8.127 8.127 0 0 1-1.415 1.414zm-11.21-1.415l-2.88 2.88 1.414 1.414 2.88-2.88a8.053 8.053 0 0 1-1.414-1.414zM12 6a6 6 0 1 0 0 12 6 6 0 0 0 0-12z"/></symbol></svg>